<svg xmlns="http://www.w3.org/2000/svg" viewBox="0 0 400 400" role="img" aria-labelledby="t d"><title id="t">Volumizing Dry Shampoo</title><desc id="d">Decorative Glowanic illustration for Volumizing Dry Shampoo</desc><defs><linearGradient id="g" x1="0" y1="0" x2="1" y2="1"><stop stop-color="#e9ddf5"/><stop offset="1" stop-color="#fbf8ff"/></linearGradient></defs><rect width="400" height="400" rx="40" fill="url(#g)"/><circle cx="70" cy="74" r="6" fill="#70528f" opacity=".55"/><circle cx="330" cy="90" r="10" fill="#70528f" opacity=".35"/><path d="M60 330c72-36 208-34 280 0" fill="none" stroke="#70528f" stroke-width="4" opacity=".25"/><path d="M128 286V118c0-24 20-44 44-44h56c24 0 44 20 44 44v168" fill="#fbf8ff" stroke="#70528f" stroke-width="6"/><rect x="150" y="98" width="100" height="42" rx="12" fill="#70528f"/><path d="M160 205c26-28 54-28 80 0M160 230c26-28 54-28 80 0" fill="none" stroke="#70528f" stroke-width="5" stroke-linecap="round"/><text x="200" y="350" text-anchor="middle" font-family="Arial, sans-serif" font-size="17" fill="#70528f">Volumizing Dry Shampoo</text></svg>